<?xml version="1.0" encoding="utf-8"?>
<!-- Generator: Adobe Illustrator 27.3.1, SVG Export Plug-In . SVG Version: 6.00 Build 0)  -->
<svg version="1.1" id="Layer_1" xmlns="http://www.w3.org/2000/svg" xmlns:xlink="http://www.w3.org/1999/xlink" x="0px" y="0px"
	 viewBox="0 0 20 20" style="enable-background:new 0 0 20 20;" xml:space="preserve">
<style type="text/css">
	.st0{fill:#FF6700;}
	.st1{fill:#FFFFFF;}
	.st2{fill:#2C3757;}
</style>
<g>
	<circle class="st0" cx="10" cy="4.1" r="1.3"/>
	<ellipse class="st1" cx="10" cy="7.6" rx="2.4" ry="1.6"/>
	<circle class="st0" cx="4.1" cy="9.4" r="1.3"/>
	<ellipse class="st1" cx="4.1" cy="12.9" rx="2.5" ry="1.6"/>
	<circle class="st0" cx="15.9" cy="9.4" r="1.3"/>
	<ellipse class="st1" cx="15.9" cy="12.9" rx="2.4" ry="1.6"/>
	<path class="st2" d="M15.8,16.2h-5.3v-5.3c0-0.3-0.2-0.5-0.5-0.5s-0.5,0.2-0.5,0.5v5.3H4.2c-0.3,0-0.5,0.2-0.5,0.5s0.2,0.5,0.5,0.5
		h11.7c0.3,0,0.5-0.2,0.5-0.5S16.1,16.2,15.8,16.2z"/>
</g>
</svg>
